<?xml version="1.0" encoding="utf-8"?>
<!-- Generator: Adobe Illustrator 27.9.0, SVG Export Plug-In . SVG Version: 6.00 Build 0)  -->
<svg version="1.1" id="Layer_1" xmlns="http://www.w3.org/2000/svg" xmlns:xlink="http://www.w3.org/1999/xlink" x="0px" y="0px"
	 viewBox="0 0 595.28 841.89" style="enable-background:new 0 0 595.28 841.89;" xml:space="preserve">
<style type="text/css">
	.st0{display:none;fill:#FFFFFF;stroke:url(#SVGID_1_);stroke-miterlimit:10;}
	.st1{fill:#FFFFFF;}
	.st2{display:none;fill:#FFFFFF;}
	.st3{display:none;}
	.st4{display:inline;fill:#FFFFFF;}
</style>
<linearGradient id="SVGID_1_" gradientUnits="userSpaceOnUse" x1="96.6658" y1="422" x2="518.4658" y2="422">
	<stop  offset="0" style="stop-color:#AE8625"/>
	<stop  offset="0.0218" style="stop-color:#B38E2C"/>
	<stop  offset="0.1151" style="stop-color:#CAAE49"/>
	<stop  offset="0.2104" style="stop-color:#DDC964"/>
	<stop  offset="0.3072" style="stop-color:#EBDE79"/>
	<stop  offset="0.4067" style="stop-color:#F4EB86"/>
	<stop  offset="0.5126" style="stop-color:#F7EF8A"/>
	<stop  offset="1" style="stop-color:#AE8625"/>
</linearGradient>
<path class="st0" d="M505.97,759.6h-396.8c-6.6,0-12-5.4-12-12V96.4c0-6.6,5.4-12,12-12h396.8c6.6,0,12,5.4,12,12v651.2
	C517.97,754.2,512.57,759.6,505.97,759.6z"/>
<path class="st1" d="M230.64,543.45l0.26-48.95l38.23-65.3l43.33,25.47l50.53-86l11.47,6.67v-41.07l-35.73,20.13l12.13,7.07
	L307,436.8l-42.4-25.2l-31.47,52.53l2.07-117.23l30.7-51.2c0,0,12.5,7.6,12.4,7c-0.1-0.6,0.8-42.2,0.3-42
	c-0.5,0.2-36.3,20.7-36.3,20.7l12.4,7.9l-18.2,28.6c0,0,4.25-174.65,4.6-175c0.57-0.57,12.73,0.03,12.87-0.27
	c0.13-0.3-0.17-11.86-0.17-11.86c0-0.45,0.3-0.85,0.74-0.97l0.77-0.21c1.43-0.39,2.94-0.41,4.38-0.07l1.22,0.29
	c0.52,0.12,1.02,0.31,1.49,0.55l61.19,31.38l-1,28.18c0,0-46.07-19.39-50-16.19c11.6,80.67,38.8,174.47,48,176.27
	c10.6-6.6,33.4-118,37.07-140c-7.77-7.4-35.07-20.07-35.07-20.07l1-28.18l57.29,25.67c0.31,0.14,0.51,0.44,0.51,0.78l3.08,355.24
	c0.01,1.34-1.08,2.44-2.42,2.44h-59.8c0,0,31.33-53.22,31-53.09s11.33,5.8,11.33,5.8l0.67-40.6l-35.47,20.67l12,7.73l-34.85,59.49
	h-73.89C231.72,545.89,230.63,544.8,230.64,543.45z"/>
<path class="st2" d="M447,608.43l15.1-7.1l-0.5,80.27c0,0,5.1,2.1,5.1,3.1s-15.4,11.25-19.7,0.6C447,684.5,447,608.43,447,608.43z"
	/>
<path class="st2" d="M424.77,608.47l-1.17,66.4h-12c0,0-0.17-17.04-20.2-17.21l0.04,4.41c-0.02-2.17-0.04-3.97-0.04-4.41
	c-18.4,0.27-18.67,17.14-18.67,17.14h-15c0,0-0.23-17.2-18.73-17.2c-17.2,0.28-19.53,17.2-19.53,17.2l-11.54,0.07v-74.2l-15.63,7.6
	v66.43l-15.9-0.2v-7.3c0,0-2.8-12.37-11.1-12.3s-37.6,0-37.6,0l19.5-30.5c0,0,2.3-3.85,0.8-8.5c0,0-17.49-11.37-18.3-11.9
	c3.8,50.91-34.1,60.9-34.1,60.9l-0.1,4.2c0,0,63.8,0,64,0c2.7,0.7,2.1,5.7,2.1,5.7l-73.4,0.1v-43.3l-16.6,7.4l-0.1,10.8
	c-3.79,0.68-9.6,2.35-15.5,6.9c-6.02,4.47-8.58,13.14-8.72,13.63c-0.01,0.01-0.01,0.02-0.01,0.02c-0.09,0.5-1.61,9.71,1.56,13.66
	c3,3.72,6.87,4.81,8.38,5.24c2.65,0.75,4.69,0.75,4.69,0.75l161.5-0.1c0,0,3.93,7,15.7,7c11.77,0,14.9-7.1,14.9-7.1l23.4,0.2
	c0,0,3.15,6.9,14.3,6.9c11.15,0,15.7-6.9,15.7-6.9h31.2l0.2-88.67L424.77,608.47z M160.22,671.9c0-6.07,12.53-8,12.53-8l0.25,10.9
	C173,674.8,160.41,676.51,160.22,671.9z M339.23,682.67c-0.44,0.02-5.83-0.47-5.7-5.74c0.14-5.26,5.49-5.1,5.49-5.1
	s4.98-0.22,5.49,5.04C345.03,682.24,339.64,682.65,339.23,682.67z M391.67,681.87c0,0-5.07-0.14-5-4.87
	c0.06-4.73,4.86-5.27,4.86-5.27s4.94,0.37,5.07,5.27C396.73,681.9,391.67,681.87,391.67,681.87z"/>
<path class="st1" d="M147.28,670.33c-0.01,0.01-0.01,0.02-0.01,0.02c0-0.01,0-0.02,0-0.02H147.28z"/>
<circle class="st2" cx="184.76" cy="620.31" r="6.93"/>
<circle class="st2" cx="168.96" cy="620.31" r="6.93"/>
<g class="st3">
	<path class="st4" d="M198.5,726.2l-2.01,2.05l2.01,2.11l2.07-2.09L198.5,726.2z M202.63,726.17l-2.06,2.1l2.06,2.06l1.98-2.11
		L202.63,726.17z"/>
	<path class="st4" d="M217.76,747.08l-2.06,2.08l2.06,2.04l1.99-2.08L217.76,747.08z M211.62,749.16l2.02,2.07l2.06-2.07l-2.06-2.05
		L211.62,749.16z"/>
	<path class="st4" d="M225.53,727.54l1.32,0.79v13.01l-3.82,0.01l-4.59-0.01v-6.9l-3.9,3.82l1.16,0.79v2.29h-9.33v-12.03l-3.93,2.84
		l1.03,1v2.14l-0.52-0.19c-0.05-0.05-0.18-0.08-0.39-0.08c-0.08-0.05-0.28-0.08-0.58-0.08l-0.5-0.02c-1.38,0-2.58,0.54-3.57,1.6
		c-0.29,0.31-0.54,0.66-0.75,1.05l-0.24,0.45l-0.13,0.37l-0.16,0.51l-0.05,0.52l-0.06,0.74v4.08h32.93v-20.6L225.53,727.54z
		 M203.47,741.34h-4.21v-1.26c0-0.72,0.27-1.34,0.81-1.86c0.53-0.52,1.16-0.78,1.87-0.78c0.58,0,1.09,0.15,1.53,0.46V741.34z"/>
	<path class="st4" d="M258.33,727.54l1.32,0.79v13.01h-7.83c-0.44-1.09-1.01-1.89-1.7-2.4c-0.69-0.52-1.5-0.78-2.42-0.78
		c-0.4,0-0.87,0.08-1.4,0.22c-0.53,0.15-1,0.36-1.41,0.64c-0.82,0.56-1.35,1.33-1.61,2.32h-6.72V723.7l-3.89,3.91l1.29,0.78v15.85
		h9.35c0.45,1.21,1.01,1.99,1.68,2.34c0.84,0.58,1.8,0.87,2.9,0.87c0.98,0,1.82-0.31,2.54-0.93c0.71-0.62,1.2-1.38,1.46-2.28h10.36
		v-20.6L258.33,727.54z M249.01,744.2c-0.32,0.38-0.79,0.57-1.41,0.57c-0.64,0-1.12-0.2-1.45-0.6c-0.34-0.42-0.5-0.9-0.5-1.41
		c0-0.29,0.05-0.56,0.15-0.81c0.1-0.25,0.22-0.45,0.35-0.61c0.41-0.4,0.87-0.6,1.38-0.6c0.59,0,1.07,0.23,1.42,0.68
		c0.36,0.45,0.53,0.92,0.53,1.4C249.48,743.36,249.33,743.82,249.01,744.2z"/>
	<path class="st4" d="M269.39,727.64l-1.27,0.79v15.84h-2.64v-20.54L269.39,727.64z"/>
	<path class="st4" d="M305,744.24h-21.89l5.56-4.95v2.05h13.56v-2.35l-1.14-0.79l3.92-3.9V744.24z M298.89,728.15l-1.81-1.85
		l-3.74,3.79l-1.87-1.9l1.87-1.85l3.74,3.72L298.89,728.15z"/>
	<path class="st4" d="M312.14,727.64l-1.27,0.79v15.84h-2.64v-20.54L312.14,727.64z"/>
	<path class="st4" d="M326.27,746.54c-0.18,0.7-0.41,1.25-0.69,1.66c-1.33,2.04-3.21,3.06-5.64,3.06c-0.58,0-1.16-0.05-1.74-0.14
		l-0.92-0.19l-0.55-0.16c-0.24-0.05-0.4-0.11-0.48-0.16l-0.89-0.29l0.95,0.13c0.37,0,0.56,0.01,0.6,0.03c0.24,0,0.37,0.01,0.39,0.03
		c1.66,0,3.09-0.47,4.3-1.42c1.29-1,2.01-2.29,2.18-3.87l0.03-0.52c0-0.97-0.23-1.88-0.68-2.73c-0.46-0.85-0.99-1.4-1.59-1.64
		l-0.93-0.32c0.44-0.34,0.84-0.93,1.19-1.76l0.19-0.76l0.06-0.73c0-0.19-0.03-0.44-0.1-0.73l-0.1-0.42l-0.16-0.47l0.45,0.35
		c0.35,0.28,0.69,0.56,0.99,0.85c0.31,0.29,0.6,0.61,0.89,0.95c0.55,0.64,1.05,1.45,1.52,2.4c0.29,0.61,0.54,1.23,0.76,1.85
		c0.18,0.64,0.27,1.31,0.27,1.98v0.24v0.21v0.18c0,0.14,0,0.29-0.01,0.46c-0.01,0.17-0.02,0.34-0.06,0.52c0,0.24-0.03,0.49-0.1,0.77
		L326.27,746.54z"/>
	<path class="st4" d="M349.29,723.43l-1.82,1.84l1.82,1.79l1.77-1.79L349.29,723.43z M351.21,726.43l-1.76,1.8l1.76,1.76l1.72-1.82
		L351.21,726.43z M345.92,728.2l1.76,1.82l1.77-1.79l-1.77-1.77L345.92,728.2z"/>
	<path class="st4" d="M367.1,726.14l-2.06,2.08l2.06,2.04l1.98-2.07L367.1,726.14z M360.96,728.22l2.01,2.08l2.07-2.08l-2.07-2.05
		L360.96,728.22z"/>
	<polygon class="st4" points="390.99,732.36 390.99,744.24 331.09,744.24 331.09,728.39 329.8,727.61 333.69,723.7 333.69,741.34 
		342.54,741.34 342.54,739.74 341.21,738.98 345.18,735.1 345.18,741.31 348.61,741.31 348.61,738.32 347.29,737.53 351.21,733.65 
		351.21,741.31 354.48,741.31 354.48,737 353.22,736.21 356.99,732.36 356.99,741.34 364.71,741.34 364.71,739.36 363.43,738.6 
		367.52,734.47 367.52,741.34 376.53,741.34 376.53,739.74 375.21,738.98 379.17,735.1 379.17,741.31 382.61,741.31 382.61,738.32 
		381.28,737.53 385.2,733.65 385.2,741.31 388.47,741.31 388.47,737 387.22,736.21 	"/>
	<path class="st4" d="M397.26,754.44c-0.37-0.03-0.71-0.18-1.03-0.43c-0.34-0.3-0.5-0.58-0.5-0.83l0.21-0.4l0.06-0.13l0.26-0.09
		l0.29,0.08l0.27,0.17l0.34,0.42l0.1,0.15l0.79-0.82c-0.13-0.34-0.37-0.58-0.73-0.73l-0.29-0.11l-0.29-0.07l-0.61-0.04
		c-0.41,0-0.69,0.06-0.85,0.19c-0.36,0.45-0.54,0.85-0.54,1.19c0,0.73,0.29,1.26,0.86,1.58c-0.6,0.31-0.94,0.53-1.02,0.66
		c-0.25,0.35-0.37,0.73-0.37,1.16l0.07,0.49l0.46-0.76l0.39-0.39l0.32-0.19c0.11-0.06,0.23-0.08,0.37-0.08h2.99v-1.02H397.26z"/>
	<path class="st4" d="M413.07,727.54l1.32,0.79v13.01h-9.25v-17.73l-3.69,3.72l0.98,1.69v11.79l-1.82,1.95l-0.16-0.17l-0.44-0.37
		l-0.54-0.56c-0.28-0.28-0.56-0.63-0.84-1.06l-0.36-0.57l-0.16-0.42c-0.11-0.21-0.18-0.42-0.21-0.63l-0.03-0.16v-9.76l1.13-1.62
		l-3.72-3.77v15.09l0.03,0.26l0.13,0.75l0.21,0.57l0.33,0.61l0.34,0.55l0.71,0.9l0.78,0.89l1.06,1.08l0.1,0.09l-3.66,3.68l5.48,5.45
		l5.37-5.39l-3.89-4.03l1.58-1.58l1.66,1.65h11.48v-20.6L413.07,727.54z M403.19,748.3l-2.31,2.31l-2.32-2.28l2.36-2.33
		L403.19,748.3z"/>
</g>
<path class="st2" d="M994.2,759.6H637.4c-6.6,0-12-5.4-12-12v-672c0-6.6,5.4-12,12-12h356.8c6.6,0,12,5.4,12,12v672
	C1006.2,754.2,1000.8,759.6,994.2,759.6z"/>
</svg>
