<?xml version="1.0" encoding="utf-8"?>
<!-- Generator: Adobe Illustrator 27.9.0, SVG Export Plug-In . SVG Version: 6.00 Build 0)  -->
<svg version="1.1" id="logo" xmlns="http://www.w3.org/2000/svg" xmlns:xlink="http://www.w3.org/1999/xlink" x="0px" y="0px"
	 viewBox="0 0 144.84 167.06" style="enable-background:new 0 0 144.84 167.06;" xml:space="preserve">
<style type="text/css">
	.st0{display:none;fill:#ED0FED;}
	.st1{fill:none;stroke:#FFFFFF;stroke-miterlimit:10;}
	.st2{fill:none;}
	.st3{fill:#FFFFFF;stroke:#FFFFFF;stroke-miterlimit:10;}
	.st4{fill:#FFFFFF;}
	.st5{display:none;fill:none;stroke:#FFFFFF;stroke-miterlimit:10;}
	.st6{opacity:0.75;}
	.st7{display:none;opacity:0.69;fill:#1D2D50;enable-background:new    ;}
	.st8{display:none;enable-background:new    ;}
	.st9{display:inline;fill:#1D2D50;}
</style>
<rect y="-1.37" class="st0" width="144.84" height="168.43"/>
<path class="st1" d="M106.33,123.33c-37.72,47-116,11.61-96.59-52.89C37.54,66.81,93.05,80.62,106.33,123.33z"/>
<path class="st2" d="M102.37,69.53c3.77,2.23,7.37,4.74,10.77,7.49V30.24h4.73L107.11,15L96.57,30.24h5.8V69.53z"/>
<path class="st3" d="M100.37,68.39c3.76,2.08,7.36,4.43,10.77,7.05v-45.2h4.73L105.11,15L94.57,30.24h5.8V68.39z"/>
<path class="st4" d="M87.15,62.45V34.61h11.48v32.85C94.92,65.53,91.09,63.86,87.15,62.45z"/>
<path class="st4" d="M72.93,58.78V42.42h11.5v19.13C80.67,60.34,76.83,59.42,72.93,58.78z"/>
<path class="st4" d="M69.88,58.32V48.15H58.69v9.41C61.14,57.73,64.72,57.67,69.88,58.32z"/>
<g>
	<path class="st4" d="M83.42,93.2c0,0-1.14,0.49-0.92,1.12l0,0c-0.39,0.09-0.7,0.4-0.79,0.79c0,0.38-0.23,0.09-0.23,0.09
		c-0.31-0.14-0.66-0.18-1-0.11c-0.32,0.2,0.06,1.29-0.08,1.34c-0.66-0.62-1.65-0.73-2.42-0.26c0,0.22,0,0.57-0.18,0.76
		c-0.18,0.19-1.06-0.05-1.19,0.08s0.3,0.34,0.09,0.52c-0.66-0.1-1.34-0.1-2,0c0,0-0.88,0.42-0.52,1c-0.42,0.16-1.86-0.55-1.86-0.55
		c-0.07-0.02-0.13-0.02-0.2,0l-1.6,0.71c0,0-0.76-0.14-1-0.38c-0.1-0.86-0.1-1.74,0-2.6c0-0.03,0-0.07,0-0.1l-2.47-6.69
		c-0.01-0.04-0.03-0.07-0.06-0.1l-1.64-1.72c-0.05-0.06-0.08-0.13-0.08-0.2v-1.6c0.01-0.04,0.01-0.09,0-0.13l-1.43-2.72l-1.12,0.2
		l2.6,9.6l0,0l1.06,3.14c0.01,0.05,0.04,0.09,0.07,0.12l2.85,2.75l0.07,0.11l0.7,2c0.03,0.1,0.12,0.18,0.23,0.19l2.5,0.33h0.1
		l2.08-0.46c0.15-0.04,0.3,0.06,0.34,0.21c0.02,0.08,0,0.17-0.05,0.23l-4.64,6.51l0,0l-3.52,3.35l-3.06,3
		c-0.06,0.05-0.09,0.12-0.09,0.2v3.7c0,0.03,0,0.06,0,0.09l0.53,1.51c0.01,0.05,0.01,0.11,0,0.16L64,121.45
		c-0.01,0.06-0.05,0.12-0.1,0.16l-2.55,2l-2,1.65c-0.07,0.05-0.11,0.13-0.11,0.22v2.36c0.01,0.1-0.05,0.2-0.14,0.25L57.52,129
		c-0.09,0.05-0.14,0.14-0.14,0.24v1.58c0,0.08-0.04,0.15-0.09,0.21l-3,2.76c-0.04,0.03-0.1,0.06-0.15,0.07l-3.19,0.53
		c-0.1,0.02-0.2-0.02-0.26-0.1l-0.86-1l0.3-0.5l-2.94-4.85c-0.01-0.04-0.01-0.07,0-0.11l-0.21-1.5c0.01-0.04,0.01-0.09,0-0.13
		l-2.6-3.65c-0.03-0.07-0.03-0.14,0-0.21l0.61-4.21c0.02-0.05,0.02-0.09,0-0.14l-0.59-1.51l0,0l-0.44-1.86
		c-0.01-0.04-0.03-0.07-0.06-0.1l-3.4-4.34c-0.04-0.05-0.06-0.12-0.06-0.18v-1.37l0.16-4c0-0.16-0.13-0.29-0.29-0.3h-2.94
		c-0.1,0-0.19-0.05-0.24-0.13l-0.93-1.47c-0.05-0.09-0.15-0.14-0.26-0.13l-1.38,0.09h-0.09l-2.42,1.04c-0.05,0.01-0.1,0.01-0.15,0
		c0,0-3.91-1-4.06-0.43c0.07,0.42-0.02,0.84-0.25,1.2c-0.82,0-1.86-1-2.79-1.61l0,0l-1.44-1.31c-0.03-0.02-0.05-0.05-0.07-0.09
		l-0.93-2c0-0.02,0-0.03,0-0.05l-2.62-3.53c-0.04-0.05-0.06-0.12-0.06-0.18l0.17-5.57c0-0.02,0-0.05,0-0.07l-0.44-2.15
		c-0.02-0.05-0.02-0.11,0-0.16l0.76-2l0,0l3.16-5.72l1.1,0.17l0.46-3.7l1.14-0.17l0.23-1.22c0.02-0.11,0.1-0.19,0.21-0.22l1-0.25
		c0.1-0.02,0.18-0.1,0.2-0.2l0.29-1.08c0.04-0.15,0.19-0.24,0.34-0.21c0.01,0,0.01,0,0.02,0.01l1.87,0.57
		c0.07,0.03,0.14,0.03,0.21,0l3.75-2.68c0.06-0.02,2.2,0.35,2.26,0.36l6.74,1.36c-0.4-0.69-1.64-0.48-1.66-0.33l0.22,3.34
		c-0.02,0.14,0.07,0.28,0.21,0.31l2.94,0.71c0.07,0.02,0.14,0.07,0.18,0.13l0.7,1.15c0.05,0.07,0.12,0.12,0.2,0.14l2.17,0.28
		l0.66,0.83L50,79.43l0.26-2c0.45-0.74,1-1.41,1.64-2l9.58,3.23l9.34,4.42l12.7,7.96C83.63,91.76,83.59,92.49,83.42,93.2z"/>
</g>
<path class="st5" d="M86.42,79.2c0,0-1.14,0.49-0.92,1.12l0,0c-0.39,0.09-0.7,0.4-0.79,0.79c0,0.38-0.23,0.09-0.23,0.09
	c-0.31-0.14-0.66-0.18-1-0.11c-0.32,0.2,0.06,1.29-0.08,1.34c-0.66-0.62-1.65-0.73-2.42-0.26c0,0.22,0,0.57-0.18,0.76
	c-0.18,0.19-1.06-0.05-1.19,0.08s0.3,0.34,0.09,0.52c-0.66-0.1-1.34-0.1-2,0c0,0-0.88,0.42-0.52,1c-0.42,0.16-1.86-0.55-1.86-0.55
	c-0.07-0.02-0.13-0.02-0.2,0l-1.6,0.71c0,0-0.76-0.14-1-0.38c-0.1-0.86-0.1-1.74,0-2.6c0-0.03,0-0.07,0-0.1l-2.47-6.69
	c-0.01-0.04-0.03-0.07-0.06-0.1l-1.64-1.72c-0.05-0.06-0.08-0.13-0.08-0.2v-1.6c0.01-0.04,0.01-0.09,0-0.13l-1.43-2.72l-1.12,0.2
	l2.6,9.6l0,0l1.06,3.14c0.01,0.05,0.04,0.09,0.07,0.12l2.85,2.75l0.07,0.11l0.7,2c0.03,0.1,0.12,0.18,0.23,0.19l2.5,0.33h0.1
	l2.08-0.46c0.15-0.04,0.3,0.06,0.34,0.21c0.02,0.08,0,0.17-0.05,0.23l-4.64,6.51l0,0l-3.52,3.35l-3.06,3
	c-0.06,0.05-0.09,0.12-0.09,0.2v3.7c0,0.03,0,0.06,0,0.09l0.53,1.51c0.01,0.05,0.01,0.11,0,0.16L67,107.45
	c-0.01,0.06-0.05,0.12-0.1,0.16l-2.55,2l-2,1.65c-0.07,0.05-0.11,0.13-0.11,0.22v2.36c0.01,0.1-0.05,0.2-0.14,0.25L60.52,115
	c-0.09,0.05-0.14,0.14-0.14,0.24v1.58c0,0.08-0.04,0.15-0.09,0.21l-3,2.76c-0.04,0.03-0.1,0.06-0.15,0.07l-3.19,0.53
	c-0.1,0.02-0.2-0.02-0.26-0.1l-0.86-1l0.3-0.5l-2.94-4.85c-0.01-0.04-0.01-0.07,0-0.11l-0.21-1.5c0.01-0.04,0.01-0.09,0-0.13
	l-2.6-3.65c-0.03-0.07-0.03-0.14,0-0.21l0.61-4.21c0.02-0.05,0.02-0.09,0-0.14l-0.59-1.51l0,0l-0.44-1.86
	c-0.01-0.04-0.03-0.07-0.06-0.1l-3.4-4.34c-0.04-0.05-0.06-0.12-0.06-0.18v-1.37l0.16-4c0-0.16-0.13-0.29-0.29-0.3h-2.94
	c-0.1,0-0.19-0.05-0.24-0.13l-0.93-1.47c-0.05-0.09-0.15-0.14-0.26-0.13l-1.38,0.09h-0.09l-2.42,1.04c-0.05,0.01-0.1,0.01-0.15,0
	c0,0-3.91-1-4.06-0.43c0.07,0.42-0.02,0.84-0.25,1.2c-0.82,0-1.86-1-2.79-1.61l0,0l-1.44-1.31c-0.03-0.02-0.05-0.05-0.07-0.09
	l-0.93-2c0-0.02,0-0.03,0-0.05l-2.62-3.53c-0.04-0.05-0.06-0.12-0.06-0.18l0.17-5.57c0-0.02,0-0.05,0-0.07l-0.44-2.15
	c-0.02-0.05-0.02-0.11,0-0.16l0.76-2l0,0l3.16-5.72l1.1,0.17l0.46-3.7l1.14-0.17l0.23-1.22c0.02-0.11,0.1-0.19,0.21-0.22l1-0.25
	c0.1-0.02,0.18-0.1,0.2-0.2l0.29-1.08c0.04-0.15,0.19-0.24,0.34-0.21c0.01,0,0.01,0,0.02,0.01l1.87,0.57c0.07,0.03,0.14,0.03,0.21,0
	l4.36-2.08c0.06-0.02,0.12-0.02,0.18,0l6.85,1.42c0.14,0.03,0.24,0.17,0.22,0.31l-0.31,2.4c-0.02,0.14,0.07,0.28,0.21,0.31
	l2.94,0.71c0.07,0.02,0.14,0.07,0.18,0.13l0.7,1.15c0.05,0.07,0.12,0.12,0.2,0.14l2.17,0.28l0.66,0.83L53,65.43l0.26-2
	c0.45-0.74,1-1.41,1.64-2l9.15,3.83h0.09l22.39,11.78C86.63,77.76,86.59,78.49,86.42,79.2z"/>
<g class="st6">
	<path class="st2" d="M72.21,121.22c0.13-0.3-0.11-0.56,0-0.72s0.59-0.1,0.85,0.12c0.45,0.38,0.29,1.16,0.27,1.25
		c-0.07,0.36-0.19,0.35-0.77,1.45c-0.11,0.2-0.15,0.3-0.25,0.5c-0.15,0.26-0.27,0.54-0.35,0.83c-0.1,0.48,0.14,0.57,0.05,0.85
		c-0.2,0.58-1.35,0.26-1.85,1c-0.31,0.43,0,0.69-0.33,1.23c-0.33,0.54-0.91,0.52-1,1c-0.09,0.48,0.24,0.57,0.12,0.87
		s-1.1,0.69-1.8,0.35c-0.63-0.31-0.98-1.01-0.85-1.7c0.17-0.55,0.76-0.57,0.85-1.15s-0.29-0.76-0.12-1s0.79,0,1-0.35
		c0.21-0.35-0.42-0.9-0.25-1.6c0.24-0.64,0.81-1.09,1.48-1.18c0.58-0.08,0.82,0.21,1.17,0c0.35-0.21,0.18-0.69,0.63-1.1
		S72.05,121.59,72.21,121.22z"/>
</g>
<path class="st4" d="M71.21,121.22c0.13-0.3-0.11-0.56,0-0.72s0.59-0.1,0.85,0.12c0.45,0.38,0.29,1.16,0.27,1.25
	c-0.07,0.36-0.19,0.35-0.77,1.45c-0.11,0.2-0.15,0.3-0.25,0.5c-0.15,0.26-0.27,0.54-0.35,0.83c-0.1,0.48,0.14,0.57,0.05,0.85
	c-0.2,0.58-1.35,0.26-1.85,1c-0.31,0.43,0,0.69-0.33,1.23c-0.33,0.54-0.91,0.52-1,1c-0.09,0.48,0.24,0.57,0.12,0.87
	s-1.1,0.69-1.8,0.35c-0.63-0.31-0.98-1.01-0.85-1.7c0.17-0.55,0.76-0.57,0.85-1.15s-0.29-0.76-0.12-1s0.79,0,1-0.35
	c0.21-0.35-0.42-0.9-0.25-1.6c0.24-0.64,0.81-1.09,1.48-1.18c0.58-0.08,0.82,0.21,1.17,0c0.35-0.21,0.18-0.69,0.63-1.1
	S71.05,121.59,71.21,121.22z"/>
<path class="st4" d="M8.64,104.97c1-0.07,2.53,4.42,3.18,5s2,2,3.77,1.83c1.18,1.25,3,2.29,3.57,3.57c0.46,1.13,0,3.07,0.51,4.32
	c1.85,2.32,3.52,4.78,5,7.35c0,0.4-0.45,0.45-0.44,0.73c3,5.07,12.72,11.13,12.72,11.13C14.5,128.26,9.41,108.73,8.64,104.97z"/>
<path class="st4" d="M83.92,140.57c0.51-0.79-0.62-0.78-0.8-1.35c3.84-1.63,7.44-3.77,10.7-6.38c0.78-0.53,1.69-0.83,2.63-0.87
	c2.58-2.48,5-3.58,5-3.25C96.42,133.76,90.47,137.79,83.92,140.57z"/>
<path class="st7" d="M107.19,108.86l2.14-2.53C82.96,36.63,0.05,54.02,0.05,54.02S82.34,46.36,107.19,108.86z"/>
<path class="st4" d="M108.33,121.34h14.58C96.54,51.64,2.05,69.02,2.05,69.02S83.48,58.84,108.33,121.34z"/>
<path class="st4" d="M127.11,121.07h16.73C110.81,39.73,6.05,61.46,6.05,61.46S100.68,49.24,127.11,121.07z"/>
<g class="st8">
	<path class="st9" d="M12.06,158.24v-21.45h15.51v2.53H14.9v6.57h11.87v2.52H14.9v7.3h13.17v2.53H12.06z"/>
	<path class="st9" d="M31.88,158.24v-21.45h2.84v18.92h10.57v2.53H31.88z"/>
	<path class="st9" d="M45.89,164.2v-1.9h17.46v1.9H45.89z"/>
	<path class="st9" d="M62.97,158.24l8.24-21.45h3.06l8.78,21.45h-3.23l-2.5-6.5h-8.97l-2.36,6.5H62.97z M69.16,149.43h7.27
		l-2.24-5.94c-0.68-1.8-1.19-3.29-1.52-4.45c-0.27,1.38-0.66,2.74-1.16,4.1L69.16,149.43z"/>
	<path class="st9" d="M85.2,158.24v-21.45h2.84v18.92h10.57v2.53H85.2z"/>
	<path class="st9" d="M99.63,158.24l8.24-21.45h3.06l8.78,21.45h-3.23l-2.5-6.5H105l-2.36,6.5H99.63z M105.82,149.43h7.27
		l-2.24-5.94c-0.68-1.8-1.19-3.29-1.52-4.45c-0.27,1.38-0.66,2.74-1.16,4.1L105.82,149.43z"/>
	<path class="st9" d="M121.89,158.24v-21.45h4.27l5.08,15.19c0.47,1.42,0.81,2.47,1.02,3.18c0.24-0.78,0.62-1.93,1.14-3.44
		l5.14-14.93h3.82v21.45h-2.74v-17.96l-6.23,17.96h-2.56l-6.2-18.26v18.26H121.89z"/>
	<path class="st9" d="M147.42,158.24v-21.45h2.84v21.45H147.42z"/>
	<path class="st9" d="M152.91,158.24l8.24-21.45h3.06l8.78,21.45h-3.23l-2.5-6.5h-8.97l-2.36,6.5H152.91z M159.1,149.43h7.27
		l-2.24-5.94c-0.68-1.8-1.19-3.29-1.52-4.45c-0.27,1.38-0.66,2.74-1.16,4.1L159.1,149.43z"/>
</g>
</svg>
