<?xml version="1.0" encoding="utf-8"?>
<!-- Generator: Adobe Illustrator 27.9.0, SVG Export Plug-In . SVG Version: 6.00 Build 0)  -->
<svg version="1.1" id="Layer_1" xmlns="http://www.w3.org/2000/svg" xmlns:xlink="http://www.w3.org/1999/xlink" x="0px" y="0px"
	 viewBox="0 0 391.9 366.68" style="enable-background:new 0 0 391.9 366.68;" xml:space="preserve">
<style type="text/css">
	.st0{fill:#FFFFFF;}
	.st1{display:none;fill:#FFFFFF;}
</style>
<path class="st0" d="M317.6,66.6l-18-17.76c-1.81-1.78-3.02-4.08-3.47-6.58l0,0c-0.45-2.48,0.26-5.03,1.93-6.92l0,0
	c1.41-1.59,3.25-2.75,5.3-3.33l73-20.83c1.82-0.51,3.72-0.73,5.61-0.64h0.75c4.96,0.24,8.92,4.2,9.17,9.16l0,0
	c0.08,1.7-0.09,3.41-0.49,5.07l-19.94,81.16c-0.33,1.35-1.15,2.54-2.31,3.32l0,0c-2.61,1.75-6.03,1.7-8.58-0.14l-0.13-0.09
	c-1.22-0.88-2.36-1.85-3.43-2.91L338.08,87.3L216.14,215.09c-1.23,1.28-3.27,1.33-4.55,0.1c-0.02-0.02-0.03-0.03-0.05-0.05
	L157,160.61c-1.13-1.13-2.97-1.13-4.1,0c-0.02,0.02-0.04,0.04-0.06,0.06l-79.31,83.86c-1.24,1.31-3.31,1.37-4.63,0.14l-11.5-10.74
	c-0.86-0.81-1.5-1.82-1.87-2.94l-19-58.06l30.8,30.9c1.45,1.45,3.8,1.45,5.25,0.01c0.02-0.02,0.05-0.05,0.07-0.08l68-71.92
	c3.82-4.03,9.14-6.29,14.69-6.24l0,0c4.69,0.05,9.17,1.91,12.51,5.21l43.62,43.08c1.26,1.25,3.29,1.24,4.54-0.02
	c0.02-0.02,0.03-0.03,0.05-0.05L317.6,66.6z"/>
<path class="st0" d="M163,10h145.07l-5,16.9c-2.08,0.74-4.11,1.64-6.05,2.7c-2.35,1.54-4.3,3.61-5.7,6.05c-1.16,2.14-1.58,4.6-1.2,7
	c0.17,0.94,0.51,1.83,1,2.65c0.53,0.96,1.15,1.86,1.85,2.7l2.9,3.12l-12.85,45l-54,58.74l29.33-112.6h-69.8
	C188.6,25.3,163,10,163,10z"/>
<path class="st0" d="M272.65,165l-19.56,72.06c-6,23.44-13.86,47.34-30.42,47.34l0,0c-13.23,0-21.27-11.9-36.94-38.91l-30.39-53.78
	c-0.24-0.41-0.76-0.55-1.17-0.32c-0.13,0.08-0.24,0.18-0.32,0.32l-36.2,63.49c-5.78,10.14-16.15,29.2-31.75,29.2l0,0
	c-18.5-1.2-23.21-22-27.48-35.51l-2.62-8.29l12.7,11.41c1.17,1.06,2.96,0.99,4.05-0.15L153,168.01c1.11-1.15,2.94-1.18,4.09-0.07
	c0.01,0.01,0.02,0.02,0.02,0.02l57.15,56.84L272.65,165z"/>
<path class="st0" d="M0,35.6L27.8,0H115c11.91-0.06,23.67,2.71,34.3,8.09c57.72,29.6,31.59,88.91-20.52,94.71H60.6l20.77,73.28
	c0.52,1.81,0.07,3.77-1.19,5.17L66.4,196.6l-33.8-33.2L1,67.4h121.6c22.67-1.2,26.07-30.2,0-31.6L0,35.6z"/>
<path class="st1" d="M23.36,345.82c-0.02,0.87,0.04,1.74,0.17,2.6c0.05,0.51,0.24,0.99,0.54,1.4c0.25,0.31,0.61,0.51,1,0.56
	c0.52,0.07,1.04,0.11,1.56,0.1H29v3.47H10.48v-3.47h2.34c0.6,0.01,1.19-0.08,1.76-0.27c0.42-0.12,0.77-0.39,1-0.76l0,0
	c0.19-0.41,0.31-0.86,0.35-1.31c0.1-0.78,0.14-1.56,0.13-2.35v-25.23c0.02-0.84-0.04-1.69-0.16-2.52c-0.05-0.45-0.2-0.89-0.45-1.27
	l0,0c-0.26-0.32-0.61-0.55-1-0.66c-0.53-0.15-1.08-0.22-1.63-0.21h-2.34v-3.5h15.17c2.92-0.09,5.83,0.32,8.61,1.22
	c1.06,0.39,2.07,0.9,3,1.54c0.94,0.64,1.78,1.43,2.47,2.33c0.72,0.94,1.29,1.98,1.69,3.1c0.41,1.23,0.61,2.52,0.58,3.81
	c0.02,1.71-0.3,3.41-0.95,5c-0.6,1.44-1.51,2.73-2.67,3.78c-1.19,1.06-2.59,1.88-4.1,2.39c-1.69,0.58-3.46,0.86-5.24,0.84
	c-0.91-0.01-1.81-0.06-2.71-0.16c-0.93-0.11-1.93-0.25-3-0.42L23.36,345.82z M23.36,331.71c0.88,0.17,1.63,0.29,2.24,0.36
	s1.14,0.09,1.59,0.09c0.89,0.01,1.77-0.19,2.57-0.58c0.78-0.37,1.48-0.9,2.06-1.54c0.59-0.66,1.05-1.43,1.36-2.26
	c0.33-0.88,0.5-1.81,0.5-2.75c0.01-1.07-0.17-2.14-0.53-3.15c-0.33-0.93-0.84-1.77-1.51-2.49c-0.66-0.7-1.46-1.26-2.35-1.64
	c-0.95-0.41-1.97-0.61-3-0.6c-0.42,0.01-0.84,0.04-1.26,0.1c-0.49,0.07-1,0.16-1.64,0.29L23.36,331.71z"/>
<path class="st1" d="M58.57,324.32v4.08c0.8-1.16,1.79-2.17,2.92-3c0.87-0.64,1.92-0.99,3-1c0.59,0,1.17,0.12,1.71,0.35
	c0.54,0.24,1.04,0.58,1.46,1c0.41,0.41,0.75,0.88,1,1.4c0.26,0.52,0.39,1.1,0.39,1.68c0.01,0.53-0.09,1.06-0.28,1.55
	c-0.17,0.45-0.42,0.87-0.75,1.23c-0.31,0.35-0.69,0.64-1.11,0.84c-0.41,0.2-0.87,0.3-1.33,0.3c-1.05-0.08-2.05-0.51-2.83-1.22
	c-0.36-0.36-0.81-0.63-1.29-0.8c-0.24,0.03-0.46,0.15-0.62,0.34c-0.29,0.26-0.55,0.55-0.78,0.87c-0.26,0.35-0.53,0.74-0.8,1.17
	s-0.51,0.84-0.72,1.25v12.31c-0.01,0.58,0.03,1.15,0.11,1.72c0.08,0.35,0.19,0.69,0.35,1.01c0.28,0.41,0.71,0.7,1.2,0.8
	c0.98,0.25,1.99,0.36,3,0.32v3.44H47.87v-3.44c0.85,0.02,1.7-0.03,2.54-0.13c0.46-0.03,0.89-0.22,1.23-0.53
	c0.27-0.31,0.41-0.71,0.39-1.12c0-0.48,0-1.12,0-1.91v-10.26c0-1.18,0-2.12,0-2.82c0-0.69,0-1.24-0.09-1.64
	c-0.03-0.29-0.09-0.58-0.18-0.86c-0.08-0.18-0.17-0.36-0.27-0.53l0,0c-0.21-0.12-0.46-0.18-0.71-0.16c-0.34,0.01-0.68,0.06-1,0.16
	c-0.5,0.15-0.99,0.33-1.47,0.54l-1-3.24l9-3.7L58.57,324.32z"/>
<path class="st1" d="M87.25,324.32c1.84-0.01,3.65,0.39,5.32,1.16c1.64,0.75,3.11,1.83,4.33,3.16c1.25,1.36,2.24,2.95,2.91,4.68
	c0.71,1.81,1.07,3.74,1.06,5.69c0,1.32-0.16,2.63-0.45,3.92c-0.3,1.33-0.74,2.62-1.31,3.85c-0.6,1.24-1.34,2.41-2.21,3.48
	c-0.81,0.99-1.78,1.84-2.87,2.5c-1.06,0.63-2.19,1.13-3.38,1.46c-1.21,0.35-2.46,0.53-3.72,0.53c-1.97,0.03-3.93-0.42-5.69-1.31
	c-1.79-0.94-3.33-2.28-4.5-3.92c-0.98-1.41-1.76-2.95-2.3-4.58c-0.56-1.65-0.85-3.38-0.85-5.13c0.01-1.35,0.19-2.7,0.55-4
	c0.35-1.35,0.85-2.66,1.49-3.9c0.6-1.19,1.34-2.3,2.22-3.31c0.77-0.92,1.7-1.7,2.74-2.3l0,0c1.04-0.6,2.15-1.08,3.3-1.43
	C84.98,324.52,86.11,324.34,87.25,324.32z M86.38,328.63c-0.46,0-0.91,0.06-1.35,0.17c-0.46,0.13-0.9,0.32-1.3,0.58
	c-0.44,0.28-0.83,0.61-1.17,1c-0.39,0.46-0.71,0.97-0.94,1.53l0,0c-0.28,0.81-0.49,1.64-0.62,2.49c-0.17,0.99-0.25,1.99-0.24,3
	c0,1.62,0.16,3.23,0.49,4.82c0.28,1.45,0.76,2.85,1.43,4.16c0.56,1.13,1.36,2.12,2.34,2.91c0.91,0.72,2.04,1.11,3.2,1.09
	c0.75,0.01,1.48-0.17,2.15-0.51c0.66-0.35,1.25-0.82,1.74-1.39l0,0c0.61-0.86,1.03-1.83,1.24-2.86c0.3-1.42,0.45-2.86,0.43-4.31
	c0.01-1.63-0.15-3.25-0.48-4.84c-0.28-1.39-0.76-2.74-1.42-4c-0.55-1.08-1.34-2.02-2.31-2.76C88.66,329,87.53,328.62,86.38,328.63z"
	/>
<path class="st1" d="M120.07,329.62v16.14c0,2.16,0.2,3.47,0.58,3.92c0.57,0.6,1.39,0.91,2.22,0.83h3.24v3.44h-17.54v-3.44h2.05
	c0.57,0.01,1.12-0.12,1.63-0.37c0.45-0.19,0.81-0.55,1-1l0,0c0.1-0.43,0.17-0.86,0.21-1.3c0.05-0.57,0.08-1.27,0.08-2.1v-16.12
	h-5.15v-4.5h5.15v-0.54c-0.02-1.93,0.27-3.85,0.86-5.69c0.53-1.62,1.36-3.12,2.45-4.42c1.03-1.22,2.32-2.19,3.77-2.86
	c1.52-0.68,3.17-1.02,4.84-1c0.91,0.01,1.8,0.15,2.67,0.42c0.92,0.27,1.81,0.66,2.62,1.18c0.78,0.5,1.46,1.14,2,1.9
	c0.54,0.75,0.82,1.65,0.81,2.57c0,0.48-0.1,0.96-0.31,1.4c-0.19,0.42-0.45,0.81-0.77,1.14c-0.29,0.31-0.63,0.57-1,0.77
	c-0.35,0.19-0.74,0.29-1.13,0.29c-0.28,0-0.56-0.04-0.83-0.13c-0.32-0.1-0.62-0.26-0.89-0.46c-0.36-0.27-0.7-0.58-1-0.92
	c-0.43-0.47-0.82-0.98-1.18-1.51c-0.39-0.61-0.87-1.17-1.43-1.64c-0.52-0.38-1.16-0.57-1.81-0.54c-0.62-0.02-1.22,0.15-1.74,0.49
	c-0.51,0.37-0.87,0.91-1,1.53c-0.15,0.85-0.24,1.7-0.28,2.56c-0.07,1.21-0.11,2.79-0.11,4.74v0.73h6.78v4.5L120.07,329.62z"/>
<path class="st1" d="M142.65,324.32v22.46c-0.01,0.6,0.02,1.2,0.08,1.8c0.03,0.38,0.09,0.76,0.17,1.13v-0.13
	c0.1,0.13,0.22,0.24,0.34,0.35l0.4,0.36l0,0c1,0.23,2.03,0.32,3.05,0.25v3.44H132v-3.44c1,0.06,2.01,0.01,3-0.16l0,0
	c0.39-0.27,0.66-0.66,0.79-1.11c0.19-0.79,0.27-1.61,0.24-2.43V336.6c0-1.33,0-2.44-0.07-3.33c-0.01-0.67-0.08-1.34-0.22-2l0,0
	c-0.06-0.46-0.47-0.8-0.93-0.77c-0.34,0.01-0.68,0.06-1,0.16c-0.49,0.14-0.97,0.31-1.44,0.51l-1.19-3.21l9.06-3.7L142.65,324.32z
	 M139.37,310.53c0.51,0,1,0.11,1.46,0.33c0.46,0.2,0.86,0.5,1.19,0.88c0.34,0.38,0.61,0.82,0.8,1.3c0.21,0.5,0.31,1.04,0.31,1.58
	c0.01,0.56-0.1,1.11-0.31,1.62c-0.19,0.48-0.46,0.93-0.8,1.32c-0.34,0.37-0.74,0.68-1.19,0.9c-0.46,0.22-0.95,0.33-1.46,0.33
	c-0.51,0-1.02-0.11-1.48-0.33c-0.46-0.23-0.88-0.53-1.24-0.9c-0.36-0.39-0.65-0.83-0.85-1.32c-0.41-1.03-0.41-2.17,0-3.2
	c0.2-0.48,0.49-0.92,0.84-1.3c0.35-0.38,0.77-0.67,1.24-0.88C138.35,310.64,138.86,310.53,139.37,310.53z"/>
<path class="st1" d="M161.91,316.45v8.67h6.17v4.44h-6.17v15.94c-0.05,0.83,0.07,1.65,0.35,2.43c0.27,0.5,0.82,0.78,1.38,0.72
	c0.55-0.02,1.08-0.24,1.48-0.61c0.54-0.48,0.96-1.07,1.22-1.74h3.06c-0.44,1.24-1.01,2.43-1.69,3.55c-0.55,0.93-1.23,1.78-2,2.54
	c-0.63,0.63-1.37,1.14-2.18,1.51c-0.7,0.32-1.45,0.5-2.22,0.5c-0.51,0-1.02-0.09-1.5-0.26c-0.52-0.18-1.01-0.42-1.46-0.72
	c-0.48-0.32-0.92-0.69-1.3-1.12c-0.41-0.45-0.75-0.95-1-1.5c-0.27-0.62-0.45-1.27-0.53-1.94c-0.13-0.91-0.19-1.83-0.18-2.75v-16.55
	h-4.18v-3c0.61-0.26,1.2-0.57,1.76-0.93c0.6-0.4,1.18-0.84,1.72-1.31c0.56-0.48,1.08-1,1.57-1.55c0.48-0.54,0.92-1.11,1.32-1.71l0,0
	c0.25-0.46,0.56-1.08,0.93-1.88s0.75-1.72,1.15-2.75L161.91,316.45z"/>
<path class="st1" d="M248.86,312.4v3.5c-0.76-0.01-1.53,0.05-2.28,0.19c-0.57,0.13-1.1,0.43-1.49,0.87c-0.5,0.59-0.9,1.27-1.17,2
	c-0.37,0.88-0.79,2.07-1.26,3.57l-11.08,32.33h-2.32l-8.39-23.46c-0.66,1.91-1.35,3.86-2.05,5.85s-1.42,4-2.12,6s-1.41,4-2.09,6
	s-1.34,3.86-2,5.7h-2.19l-11.95-33.29c-0.39-1.1-0.72-2-1-2.7s-0.48-1.19-0.61-1.45c-0.32-0.54-0.83-0.94-1.43-1.12
	c-0.95-0.3-1.94-0.43-2.94-0.39v-3.6h16.29v3.5h-1.6c-0.58-0.03-1.16,0.08-1.68,0.34c-0.32,0.15-0.54,0.46-0.57,0.82
	c0.07,0.74,0.23,1.48,0.48,2.18c0.32,1,0.72,2.25,1.19,3.6s1,2.76,1.52,4.23s1,2.82,1.47,4.06c0.06,0.24,0.18,0.61,0.36,1.13
	s0.4,1.11,0.63,1.78s0.48,1.38,0.74,2.11s0.5,1.42,0.72,2.07l0.6,1.69l0.35,1c0.13-0.34,0.34-0.93,0.63-1.77l1-2.84
	c0.38-1.06,0.77-2.19,1.18-3.37s0.8-2.32,1.17-3.38s0.7-2,1-2.8s0.47-1.36,0.58-1.68c-0.13-0.26-0.23-0.49-0.31-0.69
	s-0.14-0.41-0.19-0.61s-0.11-0.42-0.17-0.63s-0.16-0.45-0.26-0.71l-0.07-0.29c-0.17-0.43-0.32-0.86-0.46-1.31s-0.29-0.87-0.44-1.26
	l0,0c-0.27-0.6-0.57-1.19-0.91-1.76c-0.26-0.44-0.6-0.82-1-1.13c-0.42-0.29-0.9-0.5-1.41-0.59c-0.72-0.13-1.45-0.19-2.18-0.18v-3.51
	h17v3.5h-2c-0.58-0.04-1.16,0.08-1.67,0.35c-0.34,0.22-0.54,0.6-0.52,1c0.04,0.55,0.15,1.09,0.31,1.61c0.2,0.77,0.47,1.69,0.8,2.76
	s0.71,2.25,1.14,3.52s0.88,2.57,1.35,3.89s0.94,2.62,1.4,3.9s0.88,2.47,1.27,3.54s0.72,2,1,2.76s0.49,1.32,0.59,1.64
	c0.18-0.45,0.42-1.11,0.73-2l1.06-3c0.39-1.14,0.82-2.36,1.27-3.68l1.35-3.95l1.3-3.84c0.42-1.25,0.78-2.37,1.09-3.38
	s0.56-1.85,0.76-2.54c0.14-0.44,0.24-0.89,0.29-1.35c-0.03-0.19-0.13-0.36-0.28-0.48c-0.18-0.17-0.39-0.31-0.62-0.42l0,0
	c-0.42-0.11-0.84-0.19-1.27-0.22c-0.73-0.08-1.47-0.11-2.2-0.1v-3.51H248.86z"/>
<path class="st1" d="M274.07,354.5c-0.91,0.04-1.8-0.26-2.5-0.84c-0.74-0.74-1.21-1.72-1.32-2.76c-1.07,0.81-1.94,1.45-2.6,1.91
	c-0.44,0.33-0.92,0.62-1.42,0.85l0,0c-1.15,0.58-2.43,0.89-3.72,0.9c-0.95,0.01-1.9-0.18-2.78-0.55c-0.87-0.36-1.64-0.9-2.28-1.59
	c-0.68-0.73-1.21-1.6-1.55-2.54c-0.39-1.09-0.58-2.24-0.56-3.39c-0.02-1.67,0.49-3.31,1.46-4.67c0.48-0.68,1.05-1.29,1.69-1.82
	c0.7-0.58,1.44-1.11,2.22-1.57c1.22-0.71,2.49-1.33,3.79-1.87c1.56-0.66,3.42-1.4,5.56-2.21v-0.1c0.12-1.53-0.2-3.07-0.92-4.42
	c-0.76-0.94-1.93-1.42-3.13-1.3c-0.86-0.03-1.7,0.23-2.38,0.75c-0.23,0.18-0.42,0.4-0.55,0.66c-0.09,0.19-0.15,0.4-0.16,0.61
	l0.07,1.71c0.07,1.05-0.26,2.08-0.92,2.9c-0.62,0.67-1.51,1.04-2.42,1c-0.92,0.03-1.81-0.36-2.4-1.06c-0.65-0.82-0.97-1.85-0.91-2.9
	c0-1.04,0.25-2.07,0.72-3c0.51-0.98,1.22-1.84,2.1-2.52c1-0.77,2.13-1.35,3.33-1.72c1.43-0.44,2.92-0.65,4.42-0.63
	c0.98,0,1.95,0.07,2.92,0.23c0.86,0.14,1.69,0.39,2.48,0.75c0.76,0.36,1.46,0.85,2.06,1.45c0.66,0.67,1.21,1.44,1.63,2.29
	c0.27,0.65,0.41,1.35,0.42,2.05c0.07,0.93,0.11,2.1,0.13,3.51v9c0,1.63,0,2.84,0.07,3.65s0.19,1.2,0.44,1.2s0.26,0,0.26,0.07l0,0
	c0.19-0.15,0.58-0.5,1.17-1.06s1.46-1.41,2.62-2.57v4.5C278.63,352.81,276.28,354.51,274.07,354.5z M270.07,338.59
	c-1.36,0.52-2.7,1.11-4,1.77c-0.88,0.43-1.71,0.95-2.48,1.56c-0.53,0.41-0.96,0.93-1.27,1.52c-0.23,0.53-0.35,1.09-0.35,1.67
	c0,0.47,0.08,0.93,0.24,1.37c0.15,0.43,0.38,0.82,0.68,1.17c0.27,0.34,0.61,0.62,1,0.82c0.39,0.21,0.83,0.32,1.28,0.31
	c0.76-0.05,1.5-0.27,2.16-0.65c0.96-0.5,1.87-1.09,2.73-1.76L270.07,338.59z"/>
<path class="st1" d="M284.66,325.12h14.11v3.48h-1.48c-0.43-0.03-0.87,0.04-1.27,0.2c-0.29,0.14-0.43,0.32-0.43,0.53
	c0.05,0.55,0.19,1.09,0.41,1.59c0.28,0.72,0.63,1.53,1.05,2.42s0.86,1.79,1.33,2.73l1.29,2.55c0.45,0.95,0.84,1.79,1.19,2.52
	s0.72,1.52,1.15,2.33l3.76-9.25c0.24-0.58,0.46-1.16,0.68-1.75c0.21-0.59,0.46-1.16,0.74-1.72l0,0c0.1-0.36,0.2-0.7,0.29-1
	c0.08-0.3,0.12-0.61,0.12-0.92l0,0c0-0.06-0.23-0.12-0.56-0.16s-1-0.06-2.07-0.06v-3.48h10.38v3.38l-1.35,0.16
	c-0.2,0-0.4,0.04-0.58,0.13c-0.21,0.11-0.41,0.25-0.59,0.4c-0.16,0.14-0.3,0.29-0.41,0.47c-0.15,0.25-0.29,0.51-0.41,0.78
	c-0.15,0.34-0.37,0.79-0.65,1.37c-0.06,0.15-0.25,0.63-0.58,1.43l-1.23,3c-0.51,1.22-1.07,2.59-1.69,4.11l-1.9,4.66
	c-0.64,1.59-1.27,3.13-1.88,4.64s-1.16,2.88-1.67,4.1l-1.23,3c-0.33,0.79-0.51,1.26-0.55,1.38c-0.54,1.33-1.23,2.58-2.06,3.75
	c-0.7,0.99-1.53,1.88-2.46,2.65c-0.79,0.67-1.69,1.2-2.65,1.57c-0.84,0.34-1.73,0.51-2.63,0.52c-0.61,0-1.22-0.11-1.79-0.34
	c-0.55-0.22-1.06-0.53-1.51-0.93c-0.44-0.4-0.8-0.87-1.06-1.4c-0.27-0.55-0.41-1.16-0.4-1.77c-0.11-1.99,1.41-3.68,3.4-3.79
	c0.14-0.01,0.29-0.01,0.43,0c0.42,0.01,0.84,0.07,1.25,0.17c0.55,0.13,1.08,0.3,1.61,0.5l0.29,0.1l0.56,0.21
	c0.1,0.04,0.2,0.06,0.3,0.08c0.43-0.01,0.84-0.18,1.16-0.47c0.4-0.36,0.74-0.79,1-1.27c0.35-0.6,0.67-1.22,0.95-1.86
	c0.31-0.71,0.61-1.45,0.91-2.22c0.15-0.41,0.28-0.73,0.37-1s0.23-0.54,0.4-0.9l-1-2.09l-1.65-3.47l-2-4.17
	c-0.69-1.46-1.36-2.85-2-4.16s-1.19-2.46-1.66-3.47l-1-2.12l0,0c-0.39-0.58-0.69-1.08-0.92-1.49c-0.2-0.39-0.46-0.75-0.77-1.06
	c-0.32-0.32-0.7-0.57-1.12-0.74c-0.65-0.26-1.32-0.45-2-0.57L284.66,325.12z"/>
</svg>
