<?xml version="1.0" encoding="utf-8"?>
<!-- Generator: Adobe Illustrator 27.9.0, SVG Export Plug-In . SVG Version: 6.00 Build 0)  -->
<svg version="1.1" id="Layer_1" xmlns="http://www.w3.org/2000/svg" xmlns:xlink="http://www.w3.org/1999/xlink" x="0px" y="0px"
	 viewBox="0 0 633 768.39" style="enable-background:new 0 0 633 768.39;" xml:space="preserve">
<style type="text/css">
	.st0{fill:#FFFFFF;}
	.st1{display:none;fill:#FFFFFF;}
</style>
<path class="st0" d="M100.7,125.67l46,27.21c1.15,0.68,2.57,0.68,3.72,0l145.54-85.5c4.15-2.43,9.28-2.43,13.43,0
	c29.48,17.2,145.9,85.11,146.74,85c5.34,1.82,8,0,8,0c15.44-9.79,35.09-12.64,54-2.49c1.77,0.96,3.99,0.31,4.95-1.46
	c0.26-0.47,0.41-1,0.44-1.54c0.42-8.18-1.64-23.37-20.66-35.62l-0.16-0.09c-3.59-2-143.53-82.35-187.59-107.65
	C307-1.13,297-1.03,288.98,3.78L100.67,116.83c-2.44,1.46-3.23,4.61-1.77,7.05C99.34,124.62,99.96,125.23,100.7,125.67z"/>
<path class="st0" d="M157.2,162.69l56.34,34.08c1.14,0.68,2.55,0.7,3.71,0.05l83.35-47.44c1.12-0.63,2.49-0.63,3.61,0l87.16,49.07
	c1.11,0.63,2.48,0.63,3.59,0l59.84-33.61c1.76-1,2.38-3.23,1.38-4.99c-0.33-0.58-0.8-1.05-1.38-1.38L309.48,74.12
	c-2.08-1.2-4.44-1.84-6.85-1.84h-0.62c-2.46,0-4.88,0.67-7,1.93L157.2,156.38c-1.74,1.05-2.31,3.31-1.26,5.05
	C156.25,161.95,156.68,162.38,157.2,162.69z"/>
<path class="st0" d="M249.43,194.93l51.91-29.8c1.13-0.65,2.52-0.65,3.65,0l56.8,32.45c1.76,1,2.38,3.24,1.38,5
	c-0.33,0.57-0.8,1.05-1.38,1.38l-53.71,30.28c-1.14,0.66-2.55,0.66-3.69,0l-55-32.93c-1.76-1.01-2.36-3.26-1.34-5.01
	C248.38,195.73,248.85,195.25,249.43,194.93z"/>
<path class="st0" d="M98.14,191.3v-48.57c0-2.03,1.65-3.67,3.68-3.66c0.66,0,1.3,0.18,1.86,0.51l201,118.68
	c1.14,0.67,2.56,0.67,3.7,0c18-10.43,161.78-93.49,162.86-93.85c13.52-3.92,25.65-0.57,26.1,0c10.17,4.19,14.83,16.31,15.48,19.17
	c0.14,0.66,0.15,4.27,0.18,4.73l0.19,89.59c0.01,0.16,0.01,0.31,0,0.47c-0.25,1.83-2.43,12.78-19.93,22.85l-0.33,0.21
	c-4.43,3.06-164.45,95.56-183.51,106.58c-1.14,0.67-2.56,0.67-3.7,0l-136.14-80.63c-0.21-0.13-0.4-0.27-0.58-0.43
	c-0.9-0.81-3.52-3.39-4-6.38c-0.02-0.21-0.02-0.41,0-0.62c0.05-2,0.07-6.35,0.08-9.91c0-2.03-1.64-3.67-3.66-3.68
	c-0.49,0-0.97,0.1-1.43,0.29l-25.79,10.86c-1.87,0.78-2.75,2.93-1.97,4.8c0.1,0.25,0.23,0.48,0.39,0.7l24.58,34.82
	c1.17,1.65,3.46,2.05,5.12,0.87c0.09-0.07,0.19-0.14,0.27-0.21c0.44-0.37,0.91-0.74,1.38-1.06c1.14-0.78,2.62-0.85,3.83-0.19
	c14.84,8.14,122,71.59,137.29,80.66c1.14,0.66,2.53,0.66,3.67,0l199-112.48c1.76-1,3.99-0.39,4.99,1.37
	c0.3,0.53,0.47,1.12,0.48,1.73l1,43.74c0.01,0.28-0.01,0.55-0.07,0.82c-0.56,2.66-4.47,16.95-25.17,26.21
	c-4.42,2-161.33,92.69-180.24,103.63c-1.14,0.67-2.56,0.67-3.7,0C286.2,491.68,129.33,397.97,121.9,392.58
	c-16.6-10.1-23.82-31.7-23.77-51.2c0,0,0.37-55.13,0.37-62c0-0.39,0-7.47,0.2-8.7c6.11-43,46.81-17.38,48.44-16.31l0.14,0.09
	l156.46,92.62c1.15,0.68,2.57,0.68,3.72,0c14.8-8.66,113.21-66.18,125.78-72.13c0.89-0.43,1.91-0.47,2.83-0.13
	c1.2,0.43,2.26,1.16,3.1,2.12c0.39,0.54,0.48,9.48,1.93,10.4c1.36,1.09,3.22,1.31,4.79,0.56c0.45-0.22,0.84-0.55,1.15-0.94
	l47.48-58.68c1.29-1.55,1.08-3.86-0.47-5.15c-0.66-0.55-1.49-0.85-2.35-0.85l-48.56-0.41c-2.01-0.02-3.67,1.59-3.7,3.6
	c-0.06,4.17-0.17,10.7-0.22,12.82c-0.01,0.43-0.09,0.85-0.25,1.24c-0.73,1.89-1.2,2.58-9.24,7.53l-0.2,0.11
	c-3.14,1.65-105.71,61-120.87,69.79c-1.14,0.68-2.57,0.68-3.71,0l-205-122.52C98.83,193.79,98.14,192.59,98.14,191.3z"/>
<path class="st1" d="M3.68,569.56l71.2-0.36c2.04-0.01,3.71,1.64,3.72,3.68c0,0.01,0,0.01,0,0.02v15c0,2.04-1.66,3.7-3.7,3.7
	c0,0,0,0,0,0h-20c-2.04-0.01-3.69,1.64-3.7,3.68c0,0.01,0,0.01,0,0.02l-0.1,69.5c0.01,2.04-1.64,3.69-3.68,3.7
	c-0.01,0-0.01,0-0.02,0H31.5c-2.04,0-3.7-1.66-3.7-3.7l0,0l0.1-69.67c0.03-2.04-1.61-3.72-3.65-3.75c-0.02,0-0.03,0-0.05,0
	l-20.44,0.14c-2.04,0.02-3.71-1.61-3.73-3.65c0-0.02,0-0.03,0-0.05v-14.56C0.04,571.24,1.66,569.59,3.68,569.56z"/>
<path class="st1" d="M93.08,665.57l0.31-92.53c0.01-2.13,1.74-3.86,3.87-3.86H147c45,13.53,26.2,59.27,6.1,63.6
	c1.43,2.58,14.91,22.13,21.15,31.15c0.91,1.32,0.58,3.12-0.73,4.03c-0.49,0.34-1.06,0.52-1.66,0.52h-19.47
	c-0.94,0-1.81-0.45-2.36-1.21l-20.62-28.82c-0.27-0.37-0.41-0.82-0.41-1.28l0.09-20c0.01-1.2,0.98-2.17,2.18-2.17
	c3.43,0,9.73,0,9.83,0c11.4-3.3,12.2-19.35,0-23.6h-24v74.2c0,1.6-1.3,2.9-2.9,2.9c0,0,0,0,0,0H95.98c-1.6,0.01-2.89-1.28-2.9-2.88
	C93.08,665.6,93.08,665.59,93.08,665.57z"/>
<path class="st1" d="M277.9,664.79l-35.43-93.06c-0.4-1.05-1.41-1.75-2.54-1.75H221.3c-1.14,0-2.16,0.71-2.55,1.78l-34.11,93.06
	c-0.52,1.41,0.2,2.97,1.61,3.49c0.3,0.11,0.62,0.17,0.95,0.17h17.45c1.17,0,2.21-0.75,2.58-1.86l5.18-15.64l18.9-0.1
	c0,0,18.8-0.3,18.3,0s3.7,11.41,5.34,15.83c0.4,1.06,1.41,1.77,2.55,1.77h17.87c1.51-0.01,2.72-1.25,2.7-2.76
	C278.07,665.41,278.01,665.09,277.9,664.79z M219.9,631.38l11.38-32.1l10.92,32.1H219.9z"/>
<path class="st1" d="M368.13,597.51c-7.2-23.46-30.86-27.2-30.86-27.2h-42.79c-2.44,0-4.41,1.97-4.41,4.41c0,0,0,0.01,0,0.01v89.23
	c-0.01,2.44,1.96,4.41,4.4,4.42c0,0,0.01,0,0.01,0h37.59c0,0,30.46-3.13,36.06-27.2C368.01,639.91,368.4,598.71,368.13,597.51z
	 M345.07,632.69c0,8.11-6.58,14.69-14.69,14.69l0,0H314.2v-57h16.19c8.11,0.01,14.68,6.58,14.68,14.69V632.69z"/>
<path class="st1" d="M384,588.24v-14.8c0-2.26,0.87-3.13,1.95-3.13h46.25c1.08,0.03,1.95,0.91,1.95,2v16
	c-0.07,1.03-0.91,1.85-1.95,1.87h-8.8c-1.08,0.03-1.95,0.91-1.95,2v53.5c0,1.09,0.87,1.97,1.95,2h8.8c1.07,0.03,1.92,0.88,1.95,1.95
	v16.9c0,1.09-0.87,1.97-1.95,2H386c-1.08-0.03-1.95-0.91-1.95-2v-16.9c0.03-1.07,0.88-1.92,1.95-1.95h9.1
	c1.08-0.03,1.95-0.91,1.95-2v-53.5c0-1.09-0.87-1.97-1.95-2H386c-1.07,0.03-1.97-0.81-2-1.88C384,588.28,384,588.26,384,588.24z"/>
<path class="st1" d="M454.13,664.88v-91.07c0-1.93,1.57-3.5,3.5-3.5h16.05c1.2,0,2.31,0.61,2.95,1.62l33.26,52
	c0.01,0.03,0.05,0.04,0.08,0.03c0.01-0.01,0.02-0.02,0.03-0.03v-50c0-1.93,1.57-3.5,3.5-3.5h16.33c1.93,0,3.5,1.57,3.5,3.5v90.95
	c0,1.93-1.57,3.5-3.5,3.5h-14.46c-1.19,0-2.3-0.6-2.94-1.6l-35.12-54.4c-0.01-0.03-0.05-0.04-0.08-0.03
	c-0.01,0.01-0.02,0.02-0.03,0.03v52.5c0,1.93-1.57,3.5-3.5,3.5h-16.07C455.7,668.38,454.13,666.81,454.13,664.88z"/>
<path class="st1" d="M612.65,601.78h17.46c1.6,0,2.89-1.29,2.89-2.89l0,0v-4.71c0,0-9.53-27-40.2-27s-39.6,26-39.6,26v52.6
	c0,0,8.73,25,39.9,25s39.9-24.6,39.9-24.6v-29.71c0-1.6-1.29-2.89-2.89-2.89l0,0h-36c-1.6,0-2.89,1.29-2.89,2.89l0,0v14.42
	c0,1.6,1.29,2.89,2.89,2.89l0,0h14.69c0,0,1.2,13.47-9.6,15.2c-1.6,0-10.27-0.13-11.6,0c-5.89-1.37-10.43-6.07-11.6-12v-35.6
	c0,0,1.87-10.93,12.8-12.8c1.07,0,6.93-0.13,8.6,0c8.8,0.1,11.58,7.23,12.44,11C610.15,600.88,611.32,601.79,612.65,601.78z"/>
<path class="st1" d="M72.43,721.38h19.31v3.86H77.08v11.93h13.54v3.84H77.08v16.22h-4.65V721.38z"/>
<path class="st1" d="M119.83,744.16c0,9.53-6.61,13.69-12.79,13.69c-7,0-12.37-5.08-12.37-13.25c0-8.61,5.66-13.64,12.78-13.64
	C114.84,730.96,119.83,736.38,119.83,744.16z M99.43,744.46c0,5.64,3.23,9.89,7.8,9.89c4.57,0,7.84-4.19,7.84-10
	c0-4.35-2.19-9.85-7.76-9.85C101.74,734.5,99.43,739.58,99.43,744.46z"/>
<path class="st1" d="M125.74,739.56c0-3-0.08-5.63-0.22-8h4.1l0.18,5h0.17c1.2-3.45,4-5.63,7.16-5.63c0.44-0.01,0.87,0.03,1.3,0.13
	v4.4c-0.52-0.1-1.06-0.14-1.59-0.13c-3.3,0-5.63,2.48-6.26,6c-0.13,0.72-0.19,1.46-0.19,2.19v13.74h-4.65L125.74,739.56z"/>
<path class="st1" d="M154.55,721.38h19.31v3.86H159.2v11.93h13.54v3.84H159.2v16.22h-4.65V721.38z"/>
<path class="st1" d="M184.2,724.27c0.05,1.56-1.18,2.87-2.74,2.91c-0.09,0-0.17,0-0.26,0c-1.54,0.02-2.8-1.22-2.82-2.76
	c0-0.05,0-0.1,0-0.15c-0.04-1.57,1.2-2.87,2.77-2.91c0.05,0,0.09,0,0.14,0c1.55-0.06,2.85,1.14,2.91,2.69
	C184.2,724.12,184.2,724.2,184.2,724.27z M178.97,757.27v-25.72h4.66v25.72L178.97,757.27z"/>
<path class="st1" d="M191.38,738.49c0-2.68-0.09-4.81-0.21-6.94h4.13l0.26,4.23h0.13c1.72-3.06,4.99-4.91,8.5-4.82
	c3.54,0,9.07,2.13,9.07,11v15.35h-4.66v-14.87c0-4.16-1.56-7.64-5.94-7.64c-2.92,0.06-5.47,2-6.31,4.8
	c-0.21,0.7-0.32,1.43-0.32,2.17v15.5h-4.65V738.49z"/>
<path class="st1" d="M235.2,757.27l-0.41-3.25h-0.14c-1.85,2.47-4.78,3.9-7.87,3.83c-5.2,0-7.86-3.68-7.86-7.38
	c0-6.23,5.52-9.65,15.46-9.58v-0.51c0-2.09-0.59-6-5.86-5.93c-2.37-0.01-4.69,0.66-6.7,1.92l-1.06-3.11
	c2.57-1.53,5.51-2.31,8.49-2.26c7.86,0,9.78,5.38,9.78,10.53v9.62c-0.03,2.06,0.1,4.12,0.39,6.16L235.2,757.27z M234.47,744.13
	c-5.06-0.1-10.86,0.81-10.86,5.78c-0.2,2.27,1.47,4.27,3.73,4.47c0.21,0.02,0.42,0.02,0.64,0.01c2.79,0.06,5.3-1.68,6.22-4.31
	c0.15-0.48,0.22-0.97,0.22-1.47L234.47,744.13z"/>
<path class="st1" d="M246.53,738.49c0-2.68-0.09-4.81-0.21-6.94h4.13l0.26,4.23h0.13c1.73-3.06,5-4.91,8.51-4.82
	c3.53,0,9.06,2.13,9.06,11v15.35h-4.65v-14.87c0-4.16-1.57-7.64-5.95-7.64c-2.92,0.06-5.46,2-6.3,4.8c-0.22,0.7-0.33,1.43-0.32,2.17
	v15.5h-4.66L246.53,738.49z"/>
<path class="st1" d="M294.39,756.38c-2.33,1.02-4.84,1.53-7.38,1.49c-7.75,0-12.83-5.28-12.83-13.15s5.4-13.71,13.82-13.71
	c2.24-0.03,4.46,0.44,6.5,1.37l-1,3.59c-1.69-0.86-3.57-1.29-5.47-1.24c-5.87,0-9.09,4.4-9.08,9.75c0,6,3.84,9.62,9,9.62
	c1.97,0.01,3.93-0.41,5.72-1.23L294.39,756.38z"/>
<path class="st1" d="M305.11,724.27c0.05,1.56-1.18,2.87-2.74,2.91c-0.09,0-0.17,0-0.26,0c-1.54,0.02-2.8-1.22-2.82-2.76
	c0-0.05,0-0.1,0-0.15c0-1.6,1.29-2.9,2.89-2.91c1.6,0,2.9,1.29,2.91,2.89c0,0,0,0.01,0,0.01H305.11z M299.88,757.27v-25.72h4.65
	v25.72L299.88,757.27z"/>
<path class="st1" d="M326.59,757.27l-0.41-3.25h-0.14c-1.85,2.47-4.78,3.9-7.87,3.83c-5.2,0-7.86-3.68-7.86-7.38
	c0-6.23,5.52-9.65,15.46-9.58v-0.51c0-2.09-0.59-6-5.86-5.93c-2.37-0.01-4.7,0.66-6.71,1.93l-1-3.16c2.57-1.53,5.51-2.31,8.49-2.26
	c7.86,0,9.78,5.38,9.78,10.53v9.62c-0.03,2.06,0.1,4.12,0.39,6.16H326.59z M325.86,744.13c-5.06-0.1-10.86,0.81-10.86,5.78
	c-0.2,2.27,1.47,4.27,3.73,4.47c0.21,0.02,0.42,0.02,0.64,0.01c2.81,0.08,5.34-1.66,6.27-4.31c0.15-0.48,0.22-0.97,0.22-1.47V744.13
	z"/>
<path class="st1" d="M337.96,719.5h4.66v37.77h-4.66V719.5z"/>
<path class="st1" d="M386.98,756.12c-3,1.23-6.23,1.81-9.47,1.71c-10.1,0-17.67-6.39-17.67-18.16c0-11.25,7.58-18.81,18.71-18.81
	c2.92-0.12,5.83,0.42,8.51,1.58l-1.14,3.77c-2.27-1.02-4.73-1.52-7.22-1.48c-8.42,0-14,5.38-14,14.79c0,8.77,5.06,14.38,13.74,14.38
	c2.6,0.04,5.19-0.46,7.59-1.47L386.98,756.12z"/>
<path class="st1" d="M415.34,744.16c0,9.53-6.61,13.69-12.8,13.69c-7,0-12.36-5.08-12.36-13.25c0-8.61,5.66-13.64,12.77-13.64
	C410.35,730.96,415.34,736.38,415.34,744.16z M394.94,744.46c0,5.64,3.23,9.89,7.8,9.89s7.84-4.19,7.84-10
	c0-4.35-2.2-9.85-7.76-9.85S394.94,739.58,394.94,744.46L394.94,744.46z"/>
<path class="st1" d="M421.25,738.49c0-2.68-0.09-4.81-0.21-6.94h4.16l0.26,4.23h0.13c1.73-3.06,5-4.91,8.51-4.82
	c3.53,0,9.06,2.13,9.06,11v15.35h-4.65v-14.87c0-4.16-1.57-7.64-5.95-7.64c-2.92,0.06-5.46,2-6.3,4.8c-0.22,0.7-0.33,1.43-0.32,2.17
	v15.5h-4.66L421.25,738.49z"/>
<path class="st1" d="M450.11,752.51c1.88,1.13,4.01,1.76,6.2,1.83c3.42,0,5-1.68,5-3.83s-1.36-3.43-4.78-4.71
	c-4.65-1.68-6.85-4.21-6.84-7.3c0-4.14,3.37-7.54,8.9-7.54c2.2-0.04,4.38,0.51,6.3,1.58l-1.16,3.4c-1.59-0.98-3.41-1.5-5.28-1.51
	c-2.76,0-4.26,1.59-4.26,3.53c0,2.13,1.51,3.08,4.89,4.39c4.43,1.65,6.73,3.89,6.74,7.73c0,4.56-3.54,7.75-9.62,7.75
	c-2.52,0.03-5.01-0.58-7.23-1.79L450.11,752.51z"/>
<path class="st1" d="M493.34,750.23c0,2.7,0.09,5,0.22,7h-4.14l-0.25-4.21h-0.13c-1.75,3.03-5.01,4.87-8.51,4.79
	c-4,0-8.86-2.25-8.86-11.27v-15h4.65v14.21c0,4.9,1.53,8.24,5.75,8.24c2.74-0.05,5.18-1.75,6.19-4.3c0.28-0.77,0.42-1.58,0.43-2.4
	v-15.74h4.65L493.34,750.23z"/>
<path class="st1" d="M501.14,719.5h4.65v37.77h-4.65V719.5z"/>
<path class="st1" d="M519.31,724.14v7.41h6.72v3.54h-6.72v13.86c0,3.21,0.92,5,3.53,5c0.92,0.02,1.83-0.09,2.71-0.34l0.22,3.55
	c-1.34,0.47-2.76,0.69-4.18,0.65c-1.89,0.1-3.74-0.63-5.05-2c-1.29-1.42-1.82-3.69-1.82-6.71v-14h-4v-3.54h4v-6.18L519.31,724.14z"
	/>
<path class="st1" d="M536.52,724.27c0,1.6-1.29,2.9-2.89,2.91c-1.6,0-2.9-1.29-2.91-2.89c0,0,0-0.01,0-0.01
	c-0.03-1.57,1.22-2.88,2.79-2.91c0.04,0,0.08,0,0.12,0c1.55-0.05,2.84,1.16,2.89,2.71C536.52,724.13,536.52,724.2,536.52,724.27z
	 M531.3,757.27v-25.72h4.65v25.72L531.3,757.27z"/>
<path class="st1" d="M543.74,738.49c0-2.68-0.09-4.81-0.21-6.94h4.13l0.26,4.23h0.13c1.73-3.06,5-4.91,8.51-4.82
	c3.53,0,9.06,2.13,9.06,11v15.35h-4.65v-14.87c0-4.16-1.57-7.64-5.95-7.64c-2.92,0.06-5.46,2-6.3,4.8c-0.22,0.7-0.33,1.43-0.32,2.17
	v15.5h-4.66V738.49z"/>
<path class="st1" d="M595.46,731.55c-0.13,1.81-0.22,3.9-0.22,7v14.93c0,6-1.21,9.53-3.67,11.78s-6.13,3.12-9.37,3.12
	c-3,0.08-5.97-0.65-8.59-2.12l1.17-3.6c2.29,1.37,4.91,2.08,7.57,2.06c4.78,0,8.29-2.5,8.29-9v-2.87h-0.11
	c-1.74,2.82-4.86,4.48-8.17,4.33c-6.42,0-11-5.45-11-12.58c0-8.72,5.67-13.64,11.61-13.64c4.47,0,6.88,2.3,8,4.44h0.11l0.19-3.85
	L595.46,731.55z M590.59,741.66c0.02-0.71-0.07-1.41-0.26-2.09c-0.8-2.97-3.5-5.02-6.57-5c-4.46,0-7.66,3.78-7.66,9.76
	c0,5,2.6,9.26,7.61,9.26c2.99-0.01,5.63-1.96,6.51-4.82c0.25-0.81,0.37-1.65,0.37-2.49V741.66z"/>
</svg>
